<svg role="img" aria-label="Neo Financial" fill="none" height="20" viewBox="0 0 66 20" width="66" xmlns="http://www.w3.org/2000/svg">
  <g fill="#111111">
    <path d="m54.9843.419091c-8.5745 0-11.0148 5.839089-11.0148 9.790909 0 3.9518 2.4403 9.79 11.0148 9.79 8.5744 0 11.0157-5.8391 11.0157-9.79 0-3.95091-2.4413-9.790909-11.0157-9.790909zm0 18.189109c-3.1688 0-3.2954-3.1746-3.2954-8.3982 0-5.22364.1266-8.39909 3.2954-8.39909 3.1687 0 3.2954 3.17545 3.2954 8.39909 0 5.2236-.1267 8.3982-3.2954 8.3982z"/>
    <path d="m43.0146 14.8664c-4.4018 2.5991-9.1346.8354-10.6866-4.1709 7.0548-1.18186 10.401-2.43095 10.401-5.06095 0-2.54546-2.3821-5.481823-7.7453-5.196368-7.9773.425454-9.8279 6.304548-9.8279 9.774518 0 6.9737 5.4057 9.7873 9.5284 9.7873 3.4405 0 6.9032-2.0573 8.7593-4.1973zm-8.0309-13.04822c1.2442 0 2.4847 1.06182 2.4847 3.02909 0 2.47909-1.0168 3.85091-5.4233 4.59-.2754-1.99909-.5971-7.61909 2.9386-7.61909z"/>
    <path d="m10.0174 0c-2.94316 2.26501-6.36687 3.84961-10.0174 4.63636.488992.18182 3.40445 1.11819 3.40445 3.69546v7.33178c0 1.8637-.86336 2.2264-2.416299 2.4937v1.0245h12.097249v-1.0282c-1.553-.2672-2.4154-.63-2.4154-2.4936v-7.33182c0-2.77272.5361-4.68636 2.8581-4.68636 2.2555 0 2.5458 1.95727 2.5458 4.68636v10.85002h9.6485v-1.0246c-1.5529-.2672-2.4163-.63-2.4163-2.4936v-9.22636c0-3.30909-1.5122-6.014549-6.1701-6.014549-2.3341 0-5.1987.979089-7.1177 3.027269z"/>
  </g>
</svg>
